<svg width="207" height="26" viewBox="0 0 207 26" fill="none" xmlns="http://www.w3.org/2000/svg">
<path d="M4.5625 25H0.078125V2.59375H15.7656V7.07812H4.5625V11.5625H11.2812V16.0469H4.5625V25ZM31.8594 25H30.8281L29.1719 22.7031C28.7656 23.0677 28.3333 23.4115 27.875 23.7344C27.4271 24.0469 26.9531 24.3229 26.4531 24.5625C25.9531 24.7917 25.4375 24.974 24.9062 25.1094C24.3854 25.2448 23.8542 25.3125 23.3125 25.3125C22.1354 25.3125 21.026 25.1146 19.9844 24.7188C18.9531 24.3229 18.0469 23.75 17.2656 23C16.4948 22.2396 15.8854 21.3125 15.4375 20.2188C14.9896 19.125 14.7656 17.8802 14.7656 16.4844C14.7656 15.1823 14.9896 13.9896 15.4375 12.9062C15.8854 11.8125 16.4948 10.875 17.2656 10.0938C18.0469 9.3125 18.9531 8.70833 19.9844 8.28125C21.026 7.84375 22.1354 7.625 23.3125 7.625C23.8542 7.625 24.3906 7.69271 24.9219 7.82812C25.4531 7.96354 25.9688 8.15104 26.4688 8.39062C26.9688 8.63021 27.4427 8.91146 27.8906 9.23438C28.349 9.55729 28.776 9.90625 29.1719 10.2812L30.8281 8.29688H31.8594V25ZM27.5625 16.4844C27.5625 15.901 27.4479 15.3385 27.2188 14.7969C27 14.2448 26.6979 13.7604 26.3125 13.3438C25.9271 12.9167 25.474 12.5781 24.9531 12.3281C24.4427 12.0677 23.8958 11.9375 23.3125 11.9375C22.7292 11.9375 22.1771 12.0365 21.6562 12.2344C21.1458 12.4323 20.6979 12.724 20.3125 13.1094C19.9375 13.4948 19.6406 13.974 19.4219 14.5469C19.2031 15.1094 19.0938 15.7552 19.0938 16.4844C19.0938 17.2135 19.2031 17.8646 19.4219 18.4375C19.6406 19 19.9375 19.474 20.3125 19.8594C20.6979 20.2448 21.1458 20.5365 21.6562 20.7344C22.1771 20.9323 22.7292 21.0312 23.3125 21.0312C23.8958 21.0312 24.4427 20.9062 24.9531 20.6562C25.474 20.3958 25.9271 20.0573 26.3125 19.6406C26.6979 19.2135 27 18.7292 27.2188 18.1875C27.4479 17.6354 27.5625 17.0677 27.5625 16.4844ZM44.3125 25H34.5625V20.75H44.3125C44.6042 20.75 44.8542 20.6458 45.0625 20.4375C45.2708 20.2292 45.375 19.9792 45.375 19.6875C45.375 19.3854 45.2708 19.1875 45.0625 19.0938C44.8542 19 44.6042 18.9531 44.3125 18.9531H39.875C39.1354 18.9531 38.4427 18.8125 37.7969 18.5312C37.151 18.25 36.5885 17.8698 36.1094 17.3906C35.6302 16.901 35.25 16.3333 34.9688 15.6875C34.6979 15.0417 34.5625 14.349 34.5625 13.6094C34.5625 12.8698 34.6979 12.1771 34.9688 11.5312C35.25 10.8854 35.6302 10.3229 36.1094 9.84375C36.5885 9.36458 37.151 8.98958 37.7969 8.71875C38.4427 8.4375 39.1354 8.29688 39.875 8.29688H48.5156V12.5469H39.875C39.5833 12.5469 39.3333 12.651 39.125 12.8594C38.9167 13.0677 38.8125 13.3177 38.8125 13.6094C38.8125 13.9115 38.9167 14.1719 39.125 14.3906C39.3333 14.599 39.5833 14.7031 39.875 14.7031H44.3125C45.0417 14.7031 45.7292 14.8281 46.375 15.0781C47.0208 15.3177 47.5833 15.6562 48.0625 16.0938C48.5417 16.5312 48.9219 17.0573 49.2031 17.6719C49.4844 18.2865 49.625 18.9583 49.625 19.6875C49.625 20.4271 49.4844 21.1198 49.2031 21.7656C48.9219 22.401 48.5417 22.9635 48.0625 23.4531C47.5833 23.9323 47.0208 24.3125 46.375 24.5938C45.7292 24.8646 45.0417 25 44.3125 25ZM56.1719 25H51.9062V1.60938H56.1719V9C56.6823 8.61458 57.2083 8.34375 57.75 8.1875C58.2917 8.02083 58.8438 7.9375 59.4062 7.9375C60.4375 7.9375 61.4062 8.13542 62.3125 8.53125C63.2188 8.91667 64.0052 9.45312 64.6719 10.1406C65.349 10.8177 65.8802 11.6146 66.2656 12.5312C66.6615 13.4375 66.8594 14.4062 66.8594 15.4375V25H62.5625V15.4375H62.5938C62.5938 15 62.5104 14.5885 62.3438 14.2031C62.1771 13.8073 61.9479 13.4635 61.6562 13.1719C61.3646 12.8802 61.026 12.651 60.6406 12.4844C60.2552 12.3177 59.8438 12.2344 59.4062 12.2344C58.9583 12.2344 58.5365 12.3177 58.1406 12.4844C57.7448 12.651 57.401 12.8802 57.1094 13.1719C56.8177 13.4635 56.5885 13.8073 56.4219 14.2031C56.2552 14.5885 56.1719 15 56.1719 15.4375V25ZM74.9375 3.71875C74.9375 4.11458 74.8594 4.48438 74.7031 4.82812C74.5573 5.17188 74.3542 5.47396 74.0938 5.73438C73.8333 5.98438 73.526 6.1875 73.1719 6.34375C72.8281 6.48958 72.4583 6.5625 72.0625 6.5625C71.6667 6.5625 71.2917 6.48958 70.9375 6.34375C70.5938 6.1875 70.2917 5.98438 70.0312 5.73438C69.7812 5.47396 69.5781 5.17188 69.4219 4.82812C69.276 4.48438 69.2031 4.11458 69.2031 3.71875C69.2031 3.33333 69.276 2.96875 69.4219 2.625C69.5781 2.27083 69.7812 1.96875 70.0312 1.71875C70.2917 1.45833 70.5938 1.25521 70.9375 1.10938C71.2917 0.953125 71.6667 0.875 72.0625 0.875C72.4583 0.875 72.8281 0.953125 73.1719 1.10938C73.526 1.25521 73.8333 1.45833 74.0938 1.71875C74.3542 1.96875 74.5573 2.27083 74.7031 2.625C74.8594 2.96875 74.9375 3.33333 74.9375 3.71875ZM74.2031 25H69.9062V8.26562H74.2031V25ZM93.6406 16.4844C93.6406 17.7344 93.4167 18.901 92.9688 19.9844C92.5208 21.0573 91.9115 21.9896 91.1406 22.7812C90.3698 23.5625 89.4635 24.1823 88.4219 24.6406C87.3906 25.0885 86.2812 25.3125 85.0938 25.3125C83.9167 25.3125 82.8073 25.0885 81.7656 24.6406C80.7344 24.1823 79.8281 23.5625 79.0469 22.7812C78.276 21.9896 77.6667 21.0573 77.2188 19.9844C76.7708 18.901 76.5469 17.7344 76.5469 16.4844C76.5469 15.2135 76.7708 14.0365 77.2188 12.9531C77.6667 11.8698 78.276 10.9375 79.0469 10.1562C79.8281 9.36458 80.7344 8.74479 81.7656 8.29688C82.8073 7.84896 83.9167 7.625 85.0938 7.625C86.2812 7.625 87.3906 7.83854 88.4219 8.26562C89.4635 8.68229 90.3698 9.28125 91.1406 10.0625C91.9115 10.8333 92.5208 11.7656 92.9688 12.8594C93.4167 13.9427 93.6406 15.151 93.6406 16.4844ZM89.3438 16.4844C89.3438 15.7969 89.2292 15.1771 89 14.625C88.7812 14.0625 88.4792 13.5833 88.0938 13.1875C87.7083 12.7812 87.2552 12.474 86.7344 12.2656C86.224 12.0469 85.6771 11.9375 85.0938 11.9375C84.5104 11.9375 83.9583 12.0469 83.4375 12.2656C82.9271 12.474 82.4792 12.7812 82.0938 13.1875C81.7188 13.5833 81.4219 14.0625 81.2031 14.625C80.9844 15.1771 80.875 15.7969 80.875 16.4844C80.875 17.1302 80.9844 17.7292 81.2031 18.2812C81.4219 18.8333 81.7188 19.3125 82.0938 19.7188C82.4792 20.125 82.9271 20.4479 83.4375 20.6875C83.9583 20.9167 84.5104 21.0312 85.0938 21.0312C85.6771 21.0312 86.224 20.9219 86.7344 20.7031C87.2552 20.4844 87.7083 20.1771 88.0938 19.7812C88.4792 19.3854 88.7812 18.9062 89 18.3438C89.2292 17.7812 89.3438 17.1615 89.3438 16.4844ZM100.266 25H96V8.26562H97.0312L98.4375 9.89062C99.125 9.26562 99.901 8.78646 100.766 8.45312C101.641 8.10938 102.552 7.9375 103.5 7.9375C104.521 7.9375 105.484 8.13542 106.391 8.53125C107.297 8.91667 108.089 9.45312 108.766 10.1406C109.443 10.8177 109.974 11.6146 110.359 12.5312C110.755 13.4375 110.953 14.4062 110.953 15.4375V25H106.688V15.4375C106.688 15 106.604 14.5885 106.438 14.2031C106.271 13.8073 106.042 13.4635 105.75 13.1719C105.458 12.8802 105.12 12.651 104.734 12.4844C104.349 12.3177 103.938 12.2344 103.5 12.2344C103.052 12.2344 102.63 12.3177 102.234 12.4844C101.839 12.651 101.495 12.8802 101.203 13.1719C100.911 13.4635 100.682 13.8073 100.516 14.2031C100.349 14.5885 100.266 15 100.266 15.4375V25ZM118.938 25H114.453V2.59375H130.141V7.07812H118.938V11.5625H125.656V16.0469H118.938V25ZM143.234 23.0469C142.891 23.3594 142.521 23.6562 142.125 23.9375C141.74 24.2083 141.333 24.4479 140.906 24.6562C140.479 24.8542 140.036 25.0104 139.578 25.125C139.13 25.25 138.672 25.3125 138.203 25.3125C137.172 25.3125 136.203 25.1302 135.297 24.7656C134.391 24.401 133.594 23.8854 132.906 23.2188C132.229 22.5417 131.693 21.724 131.297 20.7656C130.911 19.7969 130.719 18.7135 130.719 17.5156V8.26562H134.969V17.5156C134.969 18.0781 135.052 18.5833 135.219 19.0312C135.396 19.4688 135.63 19.8385 135.922 20.1406C136.214 20.4427 136.552 20.6719 136.938 20.8281C137.333 20.9844 137.755 21.0625 138.203 21.0625C138.641 21.0625 139.052 20.9635 139.438 20.7656C139.833 20.5573 140.177 20.2865 140.469 19.9531C140.76 19.6198 140.99 19.2448 141.156 18.8281C141.323 18.401 141.406 17.9635 141.406 17.5156V8.26562H145.672V25H144.641L143.234 23.0469ZM158.125 25H148.375V20.75H158.125C158.417 20.75 158.667 20.6458 158.875 20.4375C159.083 20.2292 159.188 19.9792 159.188 19.6875C159.188 19.3854 159.083 19.1875 158.875 19.0938C158.667 19 158.417 18.9531 158.125 18.9531H153.688C152.948 18.9531 152.255 18.8125 151.609 18.5312C150.964 18.25 150.401 17.8698 149.922 17.3906C149.443 16.901 149.062 16.3333 148.781 15.6875C148.51 15.0417 148.375 14.349 148.375 13.6094C148.375 12.8698 148.51 12.1771 148.781 11.5312C149.062 10.8854 149.443 10.3229 149.922 9.84375C150.401 9.36458 150.964 8.98958 151.609 8.71875C152.255 8.4375 152.948 8.29688 153.688 8.29688H162.328V12.5469H153.688C153.396 12.5469 153.146 12.651 152.938 12.8594C152.729 13.0677 152.625 13.3177 152.625 13.6094C152.625 13.9115 152.729 14.1719 152.938 14.3906C153.146 14.599 153.396 14.7031 153.688 14.7031H158.125C158.854 14.7031 159.542 14.8281 160.188 15.0781C160.833 15.3177 161.396 15.6562 161.875 16.0938C162.354 16.5312 162.734 17.0573 163.016 17.6719C163.297 18.2865 163.438 18.9583 163.438 19.6875C163.438 20.4271 163.297 21.1198 163.016 21.7656C162.734 22.401 162.354 22.9635 161.875 23.4531C161.396 23.9323 160.833 24.3125 160.188 24.5938C159.542 24.8646 158.854 25 158.125 25ZM170.75 3.71875C170.75 4.11458 170.672 4.48438 170.516 4.82812C170.37 5.17188 170.167 5.47396 169.906 5.73438C169.646 5.98438 169.339 6.1875 168.984 6.34375C168.641 6.48958 168.271 6.5625 167.875 6.5625C167.479 6.5625 167.104 6.48958 166.75 6.34375C166.406 6.1875 166.104 5.98438 165.844 5.73438C165.594 5.47396 165.391 5.17188 165.234 4.82812C165.089 4.48438 165.016 4.11458 165.016 3.71875C165.016 3.33333 165.089 2.96875 165.234 2.625C165.391 2.27083 165.594 1.96875 165.844 1.71875C166.104 1.45833 166.406 1.25521 166.75 1.10938C167.104 0.953125 167.479 0.875 167.875 0.875C168.271 0.875 168.641 0.953125 168.984 1.10938C169.339 1.25521 169.646 1.45833 169.906 1.71875C170.167 1.96875 170.37 2.27083 170.516 2.625C170.672 2.96875 170.75 3.33333 170.75 3.71875ZM170.016 25H165.719V8.26562H170.016V25ZM189.453 16.4844C189.453 17.7344 189.229 18.901 188.781 19.9844C188.333 21.0573 187.724 21.9896 186.953 22.7812C186.182 23.5625 185.276 24.1823 184.234 24.6406C183.203 25.0885 182.094 25.3125 180.906 25.3125C179.729 25.3125 178.62 25.0885 177.578 24.6406C176.547 24.1823 175.641 23.5625 174.859 22.7812C174.089 21.9896 173.479 21.0573 173.031 19.9844C172.583 18.901 172.359 17.7344 172.359 16.4844C172.359 15.2135 172.583 14.0365 173.031 12.9531C173.479 11.8698 174.089 10.9375 174.859 10.1562C175.641 9.36458 176.547 8.74479 177.578 8.29688C178.62 7.84896 179.729 7.625 180.906 7.625C182.094 7.625 183.203 7.83854 184.234 8.26562C185.276 8.68229 186.182 9.28125 186.953 10.0625C187.724 10.8333 188.333 11.7656 188.781 12.8594C189.229 13.9427 189.453 15.151 189.453 16.4844ZM185.156 16.4844C185.156 15.7969 185.042 15.1771 184.812 14.625C184.594 14.0625 184.292 13.5833 183.906 13.1875C183.521 12.7812 183.068 12.474 182.547 12.2656C182.036 12.0469 181.49 11.9375 180.906 11.9375C180.323 11.9375 179.771 12.0469 179.25 12.2656C178.74 12.474 178.292 12.7812 177.906 13.1875C177.531 13.5833 177.234 14.0625 177.016 14.625C176.797 15.1771 176.688 15.7969 176.688 16.4844C176.688 17.1302 176.797 17.7292 177.016 18.2812C177.234 18.8333 177.531 19.3125 177.906 19.7188C178.292 20.125 178.74 20.4479 179.25 20.6875C179.771 20.9167 180.323 21.0312 180.906 21.0312C181.49 21.0312 182.036 20.9219 182.547 20.7031C183.068 20.4844 183.521 20.1771 183.906 19.7812C184.292 19.3854 184.594 18.9062 184.812 18.3438C185.042 17.7812 185.156 17.1615 185.156 16.4844ZM196.078 25H191.812V8.26562H192.844L194.25 9.89062C194.938 9.26562 195.714 8.78646 196.578 8.45312C197.453 8.10938 198.365 7.9375 199.312 7.9375C200.333 7.9375 201.297 8.13542 202.203 8.53125C203.109 8.91667 203.901 9.45312 204.578 10.1406C205.255 10.8177 205.786 11.6146 206.172 12.5312C206.568 13.4375 206.766 14.4062 206.766 15.4375V25H202.5V15.4375C202.5 15 202.417 14.5885 202.25 14.2031C202.083 13.8073 201.854 13.4635 201.562 13.1719C201.271 12.8802 200.932 12.651 200.547 12.4844C200.161 12.3177 199.75 12.2344 199.312 12.2344C198.865 12.2344 198.443 12.3177 198.047 12.4844C197.651 12.651 197.307 12.8802 197.016 13.1719C196.724 13.4635 196.495 13.8073 196.328 14.2031C196.161 14.5885 196.078 15 196.078 15.4375V25Z" fill="white"/>
</svg>
