<?xml version="1.0" encoding="UTF-8"?>
<svg id="Camada_2" data-name="Camada 2" xmlns="http://www.w3.org/2000/svg" xmlns:xlink="http://www.w3.org/1999/xlink" viewBox="0 0 394.67 137.11">
  <defs>
    <style>
      .cls-1 {
        fill: url(#Motivo_nuevo_4);
      }

      .cls-2 {
        stroke: #245e41;
        stroke-width: 5px;
      }

      .cls-2, .cls-3 {
        stroke-miterlimit: 10;
      }

      .cls-2, .cls-3, .cls-4 {
        fill: none;
      }

      .cls-5 {
        letter-spacing: -.02em;
      }

      .cls-3 {
        stroke: #fff;
        stroke-width: 2px;
      }

      .cls-6 {
        fill: #245e41;
        font-family: AbrilFatface-Regular, 'Abril Fatface';
        font-size: 25.74px;
      }

      .cls-7 {
        letter-spacing: -.15em;
      }

      .cls-8 {
        letter-spacing: -.04em;
      }

      .cls-9 {
        fill: #fff;
        font-family: JosefinSans-BoldItalic, 'Josefin Sans';
        font-size: 12.27px;
        font-style: italic;
        font-weight: 700;
      }

      .cls-10 {
        fill: url(#Degradado_sin_nombre_119);
      }

      .cls-11 {
        fill: #f4d4d7;
      }
    </style>
    <radialGradient id="Degradado_sin_nombre_119" data-name="Degradado sin nombre 119" cx="272.83" cy="65.06" fx="272.83" fy="65.06" r="168.5" gradientUnits="userSpaceOnUse">
      <stop offset="0" stop-color="#b3e0cc"/>
      <stop offset="1" stop-color="#84bfa3"/>
    </radialGradient>
    <pattern id="Motivo_nuevo_4" data-name="Motivo nuevo 4" x="0" y="0" width="29" height="29" patternTransform="translate(-99.67 -485.55)" patternUnits="userSpaceOnUse" viewBox="0 0 29 29">
      <g>
        <rect class="cls-4" width="29" height="29"/>
        <g>
          <line class="cls-3" x1="58" y1="29" x2="29" y2="58"/>
          <line class="cls-3" x1="53.38" y1="24.38" x2="24.38" y2="53.37"/>
          <line class="cls-3" x1="48.75" y1="19.75" x2="19.75" y2="48.75"/>
        </g>
        <g>
          <line class="cls-3" x1="29" y1="29" y2="58"/>
          <line class="cls-3" x1="24.38" y1="24.38" x2="-4.62" y2="53.37"/>
          <line class="cls-3" x1="19.75" y1="19.75" x2="-9.25" y2="48.75"/>
        </g>
        <line class="cls-3" y1="29" x2="-29" y2="58"/>
        <g>
          <line class="cls-3" x1="58" x2="29" y2="29"/>
          <line class="cls-3" x1="53.38" y1="-4.62" x2="24.38" y2="24.38"/>
          <line class="cls-3" x1="48.75" y1="-9.25" x2="19.75" y2="19.75"/>
        </g>
        <g>
          <line class="cls-3" x1="29" y2="29"/>
          <line class="cls-3" x1="24.38" y1="-4.62" x2="-4.62" y2="24.38"/>
          <line class="cls-3" x1="19.75" y1="-9.25" x2="-9.25" y2="19.75"/>
        </g>
        <line class="cls-3" x2="-29" y2="29"/>
        <line class="cls-3" x1="58" y1="-29" x2="29"/>
        <line class="cls-3" x1="29" y1="-29"/>
        <line class="cls-3" y1="-29" x2="-29"/>
      </g>
    </pattern>
  </defs>
  <g id="OBJECTS">
    <g>
      <rect class="cls-10" width="394.67" height="137.11"/>
      <rect class="cls-1" y="111.78" width="102.29" height="25.33"/>
      <rect class="cls-11" x="220.7" y="51.95" width="173.97" height="53.5"/>
      <rect class="cls-11" x="35.75" width="60.21" height="29.78"/>
      <rect class="cls-2" x="14.08" y="14.19" width="366.5" height="108.95"/>
      <g>
        <text class="cls-6" transform="translate(35.13 59.47)"><tspan x="0" y="0">N</tspan><tspan class="cls-8" x="17.25" y="0">E</tspan><tspan x="32.28" y="0">W</tspan></text>
        <text class="cls-6" transform="translate(35.13 81.55)"><tspan x="0" y="0">ARRI</tspan><tspan class="cls-7" x="63.87" y="0">V</tspan><tspan x="77.64" y="0">ALS</tspan></text>
        <text class="cls-9" transform="translate(35.13 99.36)"><tspan x="0" y="0">UP</tspan><tspan class="cls-5" x="17.25" y="0">T</tspan><tspan x="24.13" y="0">O 20% OFF</tspan></text>
      </g>
      <rect class="cls-1" x="184.37" width="48.43" height="108.45"/>
      <rect class="cls-1" x="325.33" y="26.95" width="45" height="110.17"/>
    </g>
  </g>
</svg>